<?xml version="1.0" encoding="UTF-8" standalone="no"?><!DOCTYPE svg PUBLIC "-//W3C//DTD SVG 1.1//EN" "http://www.w3.org/Graphics/SVG/1.1/DTD/svg11.dtd"><svg width="100%" height="100%" viewBox="0 0 184 40" version="1.1" xmlns="http://www.w3.org/2000/svg" xmlns:xlink="http://www.w3.org/1999/xlink" xml:space="preserve"><path d="M70.167,0c0,0 88.752,0 107.74,0c2.175,0 4.072,2.124 4.6,5.151c0.742,4.617 1.16,9.621 1.16,14.849c0,5.228 -0.418,10.232 -1.179,14.842c-0.526,3.015 -2.415,5.13 -4.581,5.13c-10.938,0.016 -45.022,0.023 -71.959,0.026l0,0.002c0,0 -7.166,0 -17.735,-0.001c-10.797,0.001 -18.046,0.001 -18.046,0.001l0,-0.002c-24.483,-0.003 -54.286,-0.009 -64.482,-0.023c-2.198,0 -4.105,-2.175 -4.602,-5.247c-0.7,-4.578 -1.083,-9.542 -1.083,-14.728c0,-5.186 0.383,-10.15 1.065,-14.734c0.499,-3.083 2.414,-5.266 4.62,-5.266l64.482,0Z"/></svg>
